<svg width="400" height="400" viewBox="0 0 400 400" xmlns="http://www.w3.org/2000/svg">
  <!-- Transparent background -->
  <rect width="400" height="400" fill="transparent"/>
  
  <!-- Floating hearts -->
  <g id="hearts" opacity="0.8">
    <!-- Heart 1 -->
    <path d="M100,80 C70,50 40,70 40,110 C40,140 100,190 100,190 C100,190 160,140 160,110 C160,70 130,50 100,80 Z" fill="#ff4458"/>
    
    <!-- Heart 2 -->
    <path d="M280,120 C250,90 220,110 220,150 C220,180 280,230 280,230 C280,230 340,180 340,150 C340,110 310,90 280,120 Z" fill="#ff6b7a"/>
    
    <!-- Heart 3 -->
    <path d="M150,260 C120,230 90,250 90,290 C90,320 150,370 150,370 C150,370 210,320 210,290 C210,250 180,230 150,260 Z" fill="#ff8fa3"/>
    
    <!-- Heart 4 -->
    <path d="M320,280 C290,250 260,270 260,310 C260,340 320,390 320,390 C320,390 380,340 380,310 C380,270 350,250 320,280 Z" fill="#ffb3c1"/>
  </g>
</svg>
